<svg xmlns="http://www.w3.org/2000/svg"  viewBox="0 0 512 512" width="256px" height="256px"><path fill="#07cc66" d="M315.995,441c11.05,0,20,8.95,20,20s-8.95,20-20,20c-11.04,0-20-8.95-20-20 S304.955,441,315.995,441z"/><path fill="#07cc66" d="M185.995,31c16.57,0,30,13.43,30,30s-13.43,30-30,30c-16.56,0-30-13.43-30-30 S169.435,31,185.995,31z"/><polygon fill="#313a52" points="465.995,351 400.045,441 325.995,351 365.995,351 425.995,351"/><path fill="#d7e816" d="M425.995,186v165h-60V186c0-12.42-5.04-23.68-13.181-31.82c-8.14-8.14-19.39-13.18-31.819-13.18 c-24.851,0-45,20.15-45,45v150c0,29-11.75,55.24-30.75,74.25c-19.01,19-45.25,30.75-74.25,30.75c-57.99,0-105-47.01-105-105V111 c0-8.28,3.36-15.78,8.79-21.21c5.43-5.43,12.93-8.79,21.21-8.79c16.57,0,30,13.43,30,30v225c0,12.42,5.04,23.68,13.18,31.82 c8.14,8.14,19.4,13.18,31.82,13.18c24.86,0,45-20.15,45-45V186c0-29,11.75-55.24,30.75-74.25c19.01-19,45.25-30.75,74.25-30.75 C378.984,81,425.995,128.01,425.995,186z"/><path d="M469.165,271.52c5.239,1.74,8.069,7.41,6.319,12.65c-1.739,5.23-7.41,8.07-12.649,6.32 c-5.229-1.75-8.069-7.41-6.319-12.65S463.925,269.77,469.165,271.52z"/><path d="M399.165,51.51c5.239,1.75,8.069,7.41,6.33,12.65c-1.75,5.24-7.41,8.07-12.65,6.33c-5.239-1.75-8.069-7.41-6.329-12.65 C388.266,52.6,393.925,49.77,399.165,51.51z"/><path d="M249.165,451.51c5.24,1.75,8.069,7.41,6.32,12.65c-1.74,5.24-7.41,8.07-12.65,6.32c-5.24-1.74-8.07-7.41-6.32-12.65 C238.265,452.6,243.925,449.76,249.165,451.51z"/><path d="M169.165,151.51c5.24,1.75,8.07,7.41,6.32,12.65c-1.74,5.24-7.41,8.07-12.65,6.32c-5.24-1.74-8.07-7.41-6.32-12.64 C158.265,152.6,163.925,149.76,169.165,151.51z"/><path d="M49.165,421.52c5.24,1.74,8.07,7.41,6.32,12.65c-1.74,5.23-7.41,8.07-12.65,6.32c-5.24-1.75-8.07-7.41-6.32-12.65 S43.925,419.77,49.165,421.52z"/><path d="M170.995,451c-63.411,0-115-51.589-115-115V111c0-10.68,4.162-20.724,11.719-28.281C75.271,75.162,85.314,71,95.995,71 c22.056,0,40,17.944,40,40v225c0,9.349,3.641,18.139,10.251,24.75c6.61,6.609,15.4,10.25,24.749,10.25c19.299,0,35-15.701,35-35 V186c0-30.711,11.96-59.591,33.677-81.319C261.404,82.96,290.283,71,320.995,71c63.411,0,115,51.589,115,115v165 c0,5.522-4.478,10-10,10s-10-4.478-10-10V186c0-52.383-42.616-95-95-95c-25.371,0-49.229,9.881-67.181,27.823 c-17.938,17.948-27.819,41.806-27.819,67.177v150c0,30.327-24.673,55-55,55c-14.691,0-28.503-5.721-38.891-16.108 c-10.388-10.39-16.109-24.201-16.109-38.892V111c0-11.028-8.972-20-20-20c-5.338,0-10.359,2.082-14.139,5.861 c-3.78,3.78-5.861,8.801-5.861,14.139v225c0,52.383,42.617,95,95,95c25.371,0,49.229-9.881,67.181-27.823 c17.938-17.947,27.819-41.806,27.819-67.177V186c0-30.327,24.673-55,55-55c14.69,0,28.503,5.721,38.891,16.109 c10.388,10.387,16.109,24.199,16.109,38.891v165c0,5.522-4.478,10-10,10s-10-4.478-10-10V186c0-9.349-3.641-18.139-10.251-24.749 c-6.611-6.611-15.4-10.251-24.749-10.251c-19.299,0-35,15.701-35,35v150c0,30.711-11.96,59.591-33.677,81.319 C230.585,439.04,201.706,451,170.995,451z"/><path d="M400.045,451c-2.985,0-5.82-1.334-7.723-3.646l-74.049-90c-2.459-2.987-2.973-7.125-1.32-10.623 c1.651-3.499,5.174-5.73,9.042-5.73h140c3.768,0,7.216,2.118,8.919,5.479c1.704,3.36,1.374,7.394-0.853,10.433l-65.95,90 c-1.826,2.49-4.699,3.998-7.786,4.085C400.231,450.999,400.138,451,400.045,451z M347.173,361l52.415,63.705L446.27,361H347.173z"/><path d="M185.995,101c-22.056,0-40-17.944-40-40s17.944-40,40-40s40,17.944,40,40S208.051,101,185.995,101z M185.995,41 c-11.028,0-20,8.972-20,20s8.972,20,20,20s20-8.972,20-20S197.023,41,185.995,41z"/><path d="M315.995,491c-16.542,0-30-13.458-30-30s13.458-30,30-30s30,13.458,30,30S332.537,491,315.995,491z M315.995,451 c-5.515,0-10,4.486-10,10s4.485,10,10,10s10-4.486,10-10S321.51,451,315.995,451z"/></svg>