<svg xmlns="http://www.w3.org/2000/svg"  viewBox="0 0 512 512" width="256px" height="256px"><circle cx="426.005" cy="421.001" r="30" fill="#bce4ff"/><path fill="#bce4ff" d="M251.005,51.001c13.81,0,25,11.19,25,25s-11.19,25-25,25c-13.81,0-25-11.19-25-25 S237.195,51.001,251.005,51.001z"/><path fill="#bce4ff" d="M86.005,391.001c11.04,0,20,8.95,20,20s-8.96,20-20,20c-11.05,0-20-8.95-20-20 S74.955,391.001,86.005,391.001z"/><path fill="#19ab5c" d="M256.005,181.001l170-100c0,61.96-32.79,119.29-86.19,150.7l-83.81,49.3l-83.81-49.3 c-26.7-15.7-48.25-37.89-63.12-63.89c-14.87-26.01-23.07-55.83-23.07-86.81L256.005,181.001z"/><path fill="#3256c1" d="M256.005,331.001l170-100c0,61.96-32.79,119.29-86.19,150.7l-83.81,49.3l-83.81-49.3 c-26.7-15.7-48.25-37.891-63.12-63.891c-14.87-26.01-23.07-55.83-23.07-86.81L256.005,331.001z"/><path d="M469.165,261.521c5.239,1.74,8.069,7.41,6.319,12.65c-1.739,5.23-7.41,8.07-12.649,6.32 c-5.24-1.75-8.069-7.41-6.319-12.65S463.925,259.771,469.165,261.521z"/><path d="M349.165,451.511c5.239,1.75,8.069,7.41,6.319,12.65c-1.739,5.24-7.41,8.07-12.649,6.32 c-5.24-1.74-8.069-7.41-6.319-12.65C338.266,452.601,343.925,449.761,349.165,451.511z"/><path d="M341.335,53.581c5.239,1.75,8.069,7.41,6.33,12.65c-1.75,5.24-7.41,8.07-12.649,6.33c-5.24-1.75-8.07-7.41-6.33-12.65 C330.436,54.671,336.095,51.841,341.335,53.581z"/><path d="M179.165,71.521c5.24,1.74,8.08,7.41,6.33,12.65c-1.75,5.23-7.41,8.07-12.65,6.32c-5.24-1.75-8.07-7.41-6.32-12.65 C168.265,72.601,173.925,69.771,179.165,71.521z"/><path d="M139.165,441.521c5.24,1.74,8.07,7.41,6.32,12.65c-1.74,5.23-7.41,8.07-12.65,6.32c-5.24-1.75-8.07-7.41-6.32-12.65 S133.925,439.771,139.165,441.521z"/><path d="M49.165,161.511c5.24,1.75,8.07,7.41,6.32,12.65c-1.74,5.24-7.41,8.07-12.65,6.32c-5.24-1.74-8.07-7.41-6.32-12.65 C38.265,162.601,43.925,159.761,49.165,161.511z"/><path d="M256.005,291.001c-1.753,0-3.505-0.46-5.07-1.381l-83.81-49.3c-27.698-16.287-50.773-39.644-66.73-67.544 c-15.956-27.911-24.389-59.645-24.389-91.775c0-3.587,1.921-6.899,5.035-8.681c3.115-1.78,6.943-1.757,10.035,0.062l164.93,97.018 l164.93-97.018c3.092-1.819,6.921-1.842,10.035-0.062c3.114,1.781,5.035,5.093,5.035,8.681c0,32.139-8.434,63.873-24.39,91.771 c-15.955,27.897-39.03,51.255-66.73,67.549l-83.81,49.299C259.51,290.541,257.758,291.001,256.005,291.001z M97.003,99.072 c2.477,22.379,9.528,44.14,20.753,63.776c14.229,24.879,34.807,45.708,59.507,60.233l78.741,46.318l78.739-46.317 c44.889-26.404,74.551-72.825,80.256-124.006L261.075,189.62c-3.13,1.841-7.011,1.841-10.141,0L97.003,99.072z"/><path d="M256.005,441.001c-1.753,0-3.505-0.46-5.07-1.381l-83.81-49.3c-27.697-16.287-50.773-39.644-66.73-67.545 c-15.956-27.91-24.389-59.645-24.389-91.774c0-3.587,1.921-6.899,5.035-8.681c3.115-1.78,6.943-1.758,10.035,0.062l164.93,97.018 l164.93-97.018c3.092-1.82,6.921-1.842,10.035-0.062c3.114,1.781,5.035,5.093,5.035,8.681c0,32.14-8.434,63.873-24.39,91.771 c-15.955,27.897-39.03,51.255-66.73,67.548l-83.81,49.3C259.51,440.541,257.758,441.001,256.005,441.001z M97.003,249.072 c2.477,22.38,9.528,44.14,20.753,63.775c14.229,24.88,34.807,45.709,59.507,60.233l78.741,46.318l78.739-46.317 c44.889-26.404,74.551-72.825,80.256-124.006L261.075,339.62c-3.13,1.842-7.011,1.842-10.141,0L97.003,249.072z"/><path d="M426.005,461.001c-22.056,0-40-17.944-40-40s17.944-40,40-40s40,17.944,40,40S448.061,461.001,426.005,461.001z M426.005,401.001c-11.028,0-20,8.972-20,20s8.972,20,20,20s20-8.972,20-20S437.033,401.001,426.005,401.001z"/><path d="M86.005,441.001c-16.542,0-30-13.458-30-30s13.458-30,30-30s30,13.458,30,30S102.547,441.001,86.005,441.001z M86.005,401.001c-5.514,0-10,4.486-10,10s4.486,10,10,10s10-4.486,10-10S91.519,401.001,86.005,401.001z"/><path d="M251.005,111.001c-19.299,0-35-15.701-35-35s15.701-35,35-35s35,15.701,35,35S270.304,111.001,251.005,111.001z M251.005,61.001c-8.271,0-15,6.729-15,15s6.729,15,15,15c8.271,0,15-6.729,15-15S259.275,61.001,251.005,61.001z"/></svg>